<svg width="16" height="16" viewBox="0 0 16 16" fill="none" xmlns="http://www.w3.org/2000/svg">
<path fill-rule="evenodd" clip-rule="evenodd" d="M1.84125 2.38927C1.84282 2.38927 1.80379 2.42986 1.75462 2.47825C1.56575 2.66166 1.17473 3.04331 1.17079 3.84174C1.16459 4.9586 1.89901 7.03233 5.43531 10.5679C8.95522 14.0863 11.0258 14.8293 12.145 14.8293H12.1614C12.9598 14.8254 13.3407 14.4336 13.5249 14.2455C13.5811 14.1877 13.6263 14.1456 13.6583 14.1191C14.4357 13.337 14.8337 12.7548 14.8298 12.3817C14.8243 12.0008 14.3506 11.5505 13.6958 10.9277C13.4874 10.7294 13.2611 10.514 13.0222 10.2752C12.4033 9.65785 12.0966 9.76321 11.4223 10.0005C10.4896 10.3275 9.20965 10.7724 7.22102 8.78294C5.22926 6.79272 5.67491 5.5143 6.00115 4.58163C6.23685 3.9073 6.34455 3.59979 5.72486 2.98009C5.48214 2.73815 5.26439 2.50869 5.06381 2.29796C4.44489 1.64704 3.99847 1.17641 3.61994 1.17095H3.6137C3.23985 1.17095 2.65918 1.57055 1.83735 2.3924C1.83969 2.39005 1.84047 2.38927 1.84125 2.38927ZM12.1458 16C10.2008 16 7.6651 14.4515 4.60801 11.396C1.53921 8.32792 -0.0115762 5.78435 6.50539e-05 3.8355C0.00715505 2.54771 0.68226 1.88821 0.935912 1.6408C0.94918 1.62441 0.994447 1.57992 1.01006 1.56431C2.12925 0.444327 2.88396 -0.00834916 3.63477 0.000116398C4.50655 0.0119432 5.12702 0.664421 5.91217 1.49095C6.10651 1.69543 6.31724 1.91787 6.55216 2.15201C7.69164 3.2915 7.36697 4.22105 7.10629 4.96719C6.8222 5.78122 6.57635 6.48365 8.04832 7.95563C9.52184 9.42761 10.2243 9.18176 11.0352 8.89532C11.7821 8.63465 12.7093 8.30841 13.8503 9.4479C14.0813 9.67892 14.3006 9.88731 14.5028 10.0801C15.3332 10.8691 15.9888 11.4927 15.9999 12.3669C16.0091 13.1122 15.5564 13.8716 14.4388 14.9901L13.944 14.6545L14.3623 15.0634C14.1149 15.3171 13.4562 15.993 12.1676 16H12.1458Z" fill="#0088CC"/>
</svg>
