<svg width="50" height="50" viewBox="0 0 50 50" fill="none" xmlns="http://www.w3.org/2000/svg">
<g clip-path="url(#clip0)">
<path d="M46.6668 10C44.8284 10 43.3335 11.495 43.3335 13.3333C43.3335 15.1716 44.8285 16.6666 46.6668 16.6666C48.5051 16.6666 50.0001 15.1717 50.0001 13.3333C50.0001 11.495 48.5051 10 46.6668 10ZM46.6668 15C45.7477 15 45.0001 14.2525 45.0001 13.3333C45.0001 12.4142 45.7476 11.6666 46.6668 11.6666C47.586 11.6666 48.3335 12.4141 48.3335 13.3333C48.3334 14.2525 47.5859 15 46.6668 15Z" fill="white"/>
<path d="M3.3333 37.5C1.49502 37.5 0 38.995 0 40.8333C0 42.6716 1.49502 44.1666 3.3333 44.1666C5.17168 44.1666 6.6666 42.6716 6.6666 40.8333C6.6666 38.995 5.17168 37.5 3.3333 37.5ZM3.3333 42.5C2.41416 42.5 1.6666 41.7525 1.6666 40.8333C1.6666 39.9141 2.41406 39.1666 3.3333 39.1666C4.25244 39.1666 5 39.9141 5 40.8333C5 41.7525 4.25254 42.5 3.3333 42.5Z" fill="white"/>
<path d="M45.0506 11.0533L37.8615 7.58254C37.4464 7.38166 36.949 7.55666 36.749 7.97092C36.549 8.38508 36.7231 8.88342 37.1373 9.08342L44.3265 12.5542C44.4432 12.6109 44.5665 12.6375 44.6881 12.6375C44.9981 12.6375 45.2956 12.4642 45.4389 12.1658C45.6389 11.7517 45.4648 11.2533 45.0506 11.0533Z" fill="white"/>
<path d="M37.4998 43.3333C35.6614 43.3333 34.1665 44.8283 34.1665 46.6666C34.1665 48.5049 35.6614 50 37.4998 50C39.3382 50 40.8331 48.505 40.8331 46.6667C40.8331 44.8284 39.3382 43.3333 37.4998 43.3333ZM37.4998 48.3333C36.5807 48.3333 35.8331 47.5859 35.8331 46.6666C35.8331 45.7474 36.5807 45 37.4998 45C38.4189 45 39.1665 45.7475 39.1665 46.6667C39.1665 47.5859 38.4189 48.3333 37.4998 48.3333Z" fill="white"/>
<path d="M35.8841 44.3867L28.695 40.9159C28.2799 40.715 27.7825 40.8893 27.5825 41.3043C27.3825 41.7185 27.5566 42.2168 27.9708 42.4168L35.16 45.8876C35.2767 45.9442 35.4 45.9709 35.5216 45.9709C35.8316 45.9709 36.1291 45.7976 36.2725 45.4992C36.4724 45.085 36.2983 44.5867 35.8841 44.3867Z" fill="white"/>
<path d="M24.9998 22.5C23.1614 22.5 21.6665 23.995 21.6665 25.8333C21.6665 27.6717 23.1615 29.1666 24.9998 29.1666C26.8382 29.1666 28.3331 27.6716 28.3331 25.8333C28.3331 23.995 26.8382 22.5 24.9998 22.5ZM24.9998 27.5C24.0807 27.5 23.3331 26.7525 23.3331 25.8333C23.3331 24.9142 24.0806 24.1666 24.9998 24.1666C25.9189 24.1666 26.6665 24.9141 26.6665 25.8333C26.6665 26.7525 25.9189 27.5 24.9998 27.5Z" fill="white"/>
<path d="M23.535 23.6467L18.0126 19.3425C17.6492 19.0616 17.1259 19.1241 16.8425 19.4875C16.56 19.8509 16.6242 20.3741 16.9876 20.6575L22.51 24.9617C22.6626 25.0801 22.8425 25.1376 23.0217 25.1376C23.2701 25.1376 23.5151 25.0277 23.68 24.8168C23.9626 24.4533 23.8984 23.93 23.535 23.6467Z" fill="white"/>
<path d="M40.0002 21.6667C34.946 21.6667 30.8335 25.7792 30.8335 30.8334C30.8335 35.8876 34.946 40.0001 40.0002 40.0001C45.0544 40.0001 49.1669 35.8876 49.1669 30.8334C49.1669 25.7792 45.0544 21.6667 40.0002 21.6667ZM40.0002 38.3333C35.8644 38.3333 32.5002 34.9691 32.5002 30.8333C32.5002 26.6974 35.8644 23.3333 40.0002 23.3333C44.136 23.3333 47.5002 26.6974 47.5002 30.8333C47.5002 34.9691 44.136 38.3333 40.0002 38.3333Z" fill="white"/>
<path d="M39.9998 25C38.1614 25 36.6665 26.495 36.6665 28.3333C36.6665 30.1717 38.1615 31.6666 39.9998 31.6666C41.8382 31.6666 43.3331 30.1716 43.3331 28.3333C43.3331 26.495 41.8382 25 39.9998 25ZM39.9998 30C39.0807 30 38.3331 29.2525 38.3331 28.3333C38.3331 27.4142 39.0806 26.6666 39.9998 26.6666C40.9189 26.6666 41.6665 27.4141 41.6665 28.3333C41.6665 29.2525 40.9189 30 39.9998 30Z" fill="white"/>
<path d="M42.4175 33.3333H37.5825C36.1584 33.3333 35 34.4609 35 35.8458V38.0425C35 38.34 35.1583 38.615 35.4158 38.7642C36.8125 39.5725 38.3975 40 40 40C41.6025 40 43.1875 39.5725 44.5842 38.7642C44.8417 38.6158 45 38.34 45 38.0434V35.8467C45 34.4609 43.8417 33.3333 42.4175 33.3333ZM43.3333 37.5458C41.2592 38.5791 38.7408 38.5791 36.6666 37.5458V35.8467C36.6666 35.38 37.0774 35 37.5824 35H42.4174C42.9224 35 43.3332 35.38 43.3332 35.8467V37.5458H43.3333Z" fill="white"/>
<path d="M20.0002 31.6667C14.946 31.6667 10.8335 35.7792 10.8335 40.8334C10.8335 45.8876 14.946 50 20.0002 50C25.0544 50 29.1669 45.8875 29.1669 40.8333C29.1669 35.7791 25.0544 31.6667 20.0002 31.6667ZM20.0002 48.3333C15.8644 48.3333 12.5002 44.9691 12.5002 40.8333C12.5002 36.6974 15.8644 33.3333 20.0002 33.3333C24.136 33.3333 27.5002 36.6974 27.5002 40.8333C27.5002 44.9691 24.136 48.3333 20.0002 48.3333Z" fill="white"/>
<path d="M19.9998 35C18.1614 35 16.6665 36.495 16.6665 38.3333C16.6665 40.1717 18.1615 41.6666 19.9998 41.6666C21.8381 41.6666 23.3331 40.1716 23.3331 38.3333C23.3331 36.495 21.8382 35 19.9998 35ZM19.9998 40C19.0807 40 18.3331 39.2525 18.3331 38.3333C18.3331 37.4142 19.0806 36.6666 19.9998 36.6666C20.9189 36.6666 21.6665 37.4141 21.6665 38.3333C21.6665 39.2525 20.9189 40 19.9998 40Z" fill="white"/>
<path d="M22.4175 43.3333H17.5825C16.1584 43.3333 15 44.4609 15 45.8458V48.0425C15 48.34 15.1583 48.615 15.4158 48.7642C16.8125 49.5725 18.3975 50 20 50C21.6025 50 23.1875 49.5725 24.5842 48.7642C24.8417 48.6158 25 48.34 25 48.0434V45.8467C25 44.4609 23.8417 43.3333 22.4175 43.3333ZM23.3333 47.5458C21.2591 48.5791 18.7408 48.5791 16.6666 47.5458V45.8467C16.6666 45.38 17.0774 45 17.5824 45H22.4174C22.9224 45 23.3332 45.38 23.3332 45.8467V47.5458H23.3333Z" fill="white"/>
<path d="M9.1667 10.8333C4.1125 10.8333 0 14.9458 0 20C0 25.0542 4.1125 29.1667 9.1667 29.1667C14.2209 29.1667 18.3334 25.0542 18.3334 20C18.3333 14.9458 14.2208 10.8333 9.1667 10.8333ZM9.1667 27.5C5.03086 27.5 1.6667 24.1359 1.6667 20C1.6667 15.8642 5.03086 12.5 9.1667 12.5C13.3025 12.5 16.6667 15.8642 16.6667 20C16.6667 24.1359 13.3025 27.5 9.1667 27.5Z" fill="white"/>
<path d="M9.1668 14.1667C7.32842 14.1667 5.8335 15.6617 5.8335 17.5C5.8335 19.3383 7.32852 20.8333 9.1668 20.8333C11.0052 20.8333 12.5001 19.3383 12.5001 17.5C12.5001 15.6617 11.0051 14.1667 9.1668 14.1667ZM9.1668 19.1667C8.24766 19.1667 7.5001 18.4192 7.5001 17.5C7.5001 16.5807 8.24756 15.8333 9.1668 15.8333C10.0859 15.8333 10.8335 16.5807 10.8335 17.5C10.8335 18.4192 10.0859 19.1667 9.1668 19.1667Z" fill="white"/>
<path d="M11.584 22.5H6.74902C5.3249 22.5 4.1665 23.6275 4.1665 25.0125V27.2092C4.1665 27.5066 4.3248 27.7816 4.58232 27.9309C5.979 28.7392 7.56397 29.1667 9.16651 29.1667C10.769 29.1667 12.354 28.7392 13.7507 27.9309C14.0082 27.7825 14.1665 27.5066 14.1665 27.2101V25.0134C14.1665 23.6275 13.0081 22.5 11.584 22.5ZM12.4998 26.7125C10.4257 27.7458 7.90733 27.7458 5.83311 26.7125V25.0134C5.83311 24.5467 6.24395 24.1667 6.74893 24.1667H11.5839C12.0889 24.1667 12.4997 24.5467 12.4997 25.0134V26.7125H12.4998Z" fill="white"/>
<path d="M29.1667 0C24.1125 0 20 4.1125 20 9.1667C20 14.2209 24.1125 18.3334 29.1667 18.3334C34.2209 18.3334 38.3334 14.2209 38.3334 9.1667C38.3333 4.1125 34.2208 0 29.1667 0ZM29.1667 16.6667C25.0309 16.6667 21.6667 13.3025 21.6667 9.1667C21.6667 5.03086 25.0309 1.6667 29.1667 1.6667C33.3025 1.6667 36.6667 5.03086 36.6667 9.1667C36.6667 13.3025 33.3025 16.6667 29.1667 16.6667Z" fill="white"/>
<path d="M29.1668 3.33331C27.3284 3.33331 25.8335 4.82833 25.8335 6.66661C25.8335 8.50489 27.3285 9.99992 29.1668 9.99992C31.0051 9.99992 32.5001 8.50499 32.5001 6.66671C32.5001 4.82843 31.0051 3.33331 29.1668 3.33331ZM29.1668 8.33331C28.2477 8.33331 27.5001 7.58585 27.5001 6.66661C27.5001 5.74747 28.2476 4.99991 29.1668 4.99991C30.086 4.99991 30.8335 5.74738 30.8335 6.66661C30.8334 7.58585 30.0859 8.33331 29.1668 8.33331Z" fill="white"/>
<path d="M31.584 11.6667H26.749C25.3249 11.6667 24.1665 12.7942 24.1665 14.1792V16.3759C24.1665 16.6733 24.3248 16.9483 24.5823 17.0975C25.979 17.9058 27.564 18.3334 29.1665 18.3334C30.769 18.3334 32.354 17.9058 33.7507 17.0975C34.0082 16.9492 34.1665 16.6733 34.1665 16.3767V14.1801C34.1665 12.7941 33.0081 11.6667 31.584 11.6667ZM32.4998 15.8792C30.4257 16.9125 27.9073 16.9125 25.8331 15.8792V14.1801C25.8331 13.7134 26.2439 13.3334 26.7489 13.3334H31.5839C32.0889 13.3334 32.4997 13.7134 32.4997 14.1801V15.8792H32.4998Z" fill="white"/>
<path d="M21.4674 8.62416C21.1683 8.27582 20.6424 8.23412 20.2924 8.53334L14.5174 13.475C14.1674 13.7742 14.1266 14.3 14.4257 14.65C14.5907 14.8425 14.824 14.9417 15.059 14.9417C15.2507 14.9417 15.4432 14.8759 15.6007 14.7409L21.3757 9.79916C21.7258 9.50004 21.7666 8.97416 21.4674 8.62416Z" fill="white"/>
<path d="M39.8335 22.0009L34.8335 15.3342C34.5576 14.965 34.0352 14.8925 33.6668 15.1675C33.2984 15.4433 33.2243 15.9658 33.5001 16.3333L38.5001 23C38.6643 23.2183 38.9143 23.3333 39.1676 23.3333C39.3409 23.3333 39.5168 23.2791 39.6668 23.1666C40.0351 22.8908 40.1094 22.3683 39.8335 22.0009Z" fill="white"/>
<path d="M32.9943 33.5892C32.7185 33.2208 32.196 33.1467 31.8276 33.4225L27.1727 36.9133C26.8043 37.1892 26.7302 37.7116 27.006 38.0791C27.1701 38.2975 27.4201 38.4124 27.6734 38.4124C27.8476 38.4124 28.0226 38.3574 28.1727 38.2457L32.8276 34.7549C33.196 34.4792 33.2702 33.9566 32.9943 33.5892Z" fill="white"/>
<path d="M11.6667 40H5.8333C5.37334 40 5 40.3725 5 40.8333C5 41.2941 5.37334 41.6666 5.8333 41.6666H11.6666C12.1266 41.6666 12.4999 41.2941 12.4999 40.8333C12.4999 40.3725 12.1267 40 11.6667 40Z" fill="white"/>
<path d="M9.1669 0C7.32852 0 5.8335 1.49502 5.8335 3.3333C5.8335 5.17168 7.32852 6.6666 9.1668 6.6666C11.0052 6.6666 12.5001 5.17158 12.5001 3.3333C12.5002 1.49502 11.0052 0 9.1669 0ZM9.1669 5C8.24775 5 7.5002 4.25254 7.5002 3.3333C7.5002 2.41416 8.24766 1.6666 9.1669 1.6666C10.086 1.6666 10.8336 2.41406 10.8336 3.3333C10.8335 4.25254 10.086 5 9.1669 5Z" fill="white"/>
<path d="M9.1668 5C8.70684 5 8.3335 5.37246 8.3335 5.8333V11.6666C8.3335 12.1274 8.70684 12.4999 9.1668 12.4999C9.62676 12.4999 10.0001 12.1274 10.0001 11.6666V5.8333C10.0001 5.37246 9.62676 5 9.1668 5Z" fill="white"/>
</g>
<defs>
<clipPath id="clip0">
<rect width="50" height="50" fill="white"/>
</clipPath>
</defs>
</svg>
