<svg width="50" height="50" viewBox="0 0 50 50" fill="none" xmlns="http://www.w3.org/2000/svg">
<path d="M13.3756 31.4682C13.8425 31.1989 14.0024 30.6011 13.7331 30.1342C13.4634 29.6677 12.866 29.5075 12.3991 29.7768C11.9321 30.0465 11.7719 30.6443 12.0416 31.1108C12.3109 31.5777 12.9087 31.7379 13.3756 31.4682Z" fill="white"/>
<path d="M9.37346 38.2084L14.2914 46.727C15.3526 48.5672 17.7399 49.2485 19.6277 48.1571C21.4958 47.0776 22.1378 44.6907 21.0571 42.8211L18.1274 37.7461L20.6646 36.2812C21.1315 36.0111 21.2917 35.4141 21.022 34.9472L19.7521 32.7477C19.9035 32.7183 20.8992 32.523 38.4571 29.0787C40.6277 28.9608 41.9281 26.5869 40.8317 24.6891L37.5862 19.0678L39.6602 15.9264C39.864 15.6174 39.8762 15.2203 39.6911 14.8998L37.738 11.517C37.553 11.1965 37.2017 11.0089 36.8336 11.0306L33.0765 11.256L29.4735 5.0152C28.9516 4.11111 28.0166 3.56371 26.9729 3.55074C26.9604 3.55035 26.9482 3.55035 26.9356 3.55035C25.927 3.55035 25.0114 4.05237 24.469 4.90114L11.7119 21.1525L3.41833 25.9407C0.156387 27.8233 -0.973526 32.008 0.916275 35.2787C2.64281 38.2694 6.28279 39.4459 9.37346 38.2084ZM19.3661 43.7981C19.9055 44.7312 19.5862 45.9252 18.6504 46.4657C17.7116 47.0085 16.5161 46.6751 15.9828 45.7508L11.1 37.2925L14.4829 35.3394C20.134 45.1286 19.2753 43.6413 19.3661 43.7981ZM17.1509 36.0542L16.1743 34.3628L17.8657 33.3862L18.8423 35.0777L17.1509 36.0542ZM36.3483 13.0161L37.698 15.3538L36.4944 17.1765L34.1682 13.147L36.3483 13.0161ZM26.1024 5.97192C26.3645 5.54315 26.7803 5.4989 26.9489 5.50348C27.1156 5.50539 27.531 5.55727 27.7817 5.99138L39.1403 25.6657C39.5103 26.3062 39.0606 27.1115 38.3186 27.1298C38.1855 27.1328 38.1241 27.1568 37.783 27.2206L25.7679 6.40947C26.02 6.08522 26.0525 6.05394 26.1024 5.97192ZM24.4682 8.06505L35.757 27.618L18.7198 30.9597L13.5395 21.9872L24.4682 8.06505ZM2.60771 34.3022C2.17894 33.5602 1.95235 32.7179 1.95235 31.8657C1.95235 30.1239 2.88847 28.5019 4.3949 27.6322L12.0064 23.2376L16.8892 31.6948L9.27771 36.0897C6.94579 37.4355 3.95392 36.6337 2.60771 34.3022Z" fill="white"/>
<path d="M10.3498 32.0873C10.0801 31.6204 9.48274 31.4602 9.01582 31.7299L7.32438 32.7065C6.85823 32.9758 6.2597 32.8152 5.99038 32.349C5.72068 31.8821 5.1233 31.7219 4.65638 31.9916C4.18946 32.2613 4.02925 32.8587 4.29895 33.3256C5.1027 34.718 6.89561 35.2089 8.30094 34.3979L9.99238 33.4213C10.4593 33.1516 10.6195 32.5546 10.3498 32.0873Z" fill="white"/>
<path d="M48.5485 5.63929L43.1069 8.6674C42.6358 8.92985 42.466 9.52456 42.7284 9.99568C42.9901 10.4664 43.5845 10.6369 44.0567 10.3741L49.498 7.34599C49.9695 7.08354 50.1389 6.48883 49.8764 6.01771C49.6144 5.54622 49.0196 5.37684 48.5485 5.63929Z" fill="white"/>
<path d="M47.978 15.7535L44.2049 14.7426C43.6838 14.603 43.1482 14.912 43.0086 15.4331C42.869 15.9542 43.1784 16.4894 43.6995 16.629L47.473 17.6399C47.9971 17.7807 48.53 17.4667 48.6689 16.9495C48.8085 16.4284 48.4991 15.8928 47.978 15.7535Z" fill="white"/>
<path d="M38.4963 2.09119L37.4842 5.86469C37.3446 6.38578 37.6536 6.92098 38.1747 7.06098C38.6954 7.20022 39.231 6.89199 39.371 6.37052L40.3826 2.59702C40.5222 2.07593 40.2132 1.54035 39.6922 1.40073C39.1715 1.26111 38.6359 1.5701 38.4963 2.09119Z" fill="white"/>
</svg>
