<svg width="16" height="16" viewBox="0 0 16 16" fill="none" xmlns="http://www.w3.org/2000/svg">
<path fill-rule="evenodd" clip-rule="evenodd" d="M7.22487 9.69683L10.2256 14.5651C10.3569 14.7785 10.562 14.776 10.6449 14.7645C10.7278 14.753 10.9272 14.7022 10.9994 14.4601L14.7517 1.78676C14.8174 1.56275 14.6968 1.41013 14.6426 1.35598C14.5901 1.30182 14.4399 1.18612 14.2225 1.24766L1.54012 4.96146C1.2997 5.03202 1.24719 5.23388 1.2357 5.31675C1.22421 5.40127 1.22093 5.61051 1.43345 5.74426L6.35755 8.82377L10.7081 4.42728C10.9469 4.18604 11.3366 4.18358 11.5787 4.42236C11.8207 4.66114 11.8224 5.05172 11.5836 5.29296L7.22487 9.69683ZM10.5809 16.0003C10.0098 16.0003 9.48629 15.7098 9.17777 15.2109L5.99651 10.0488L0.781115 6.78717C0.219041 6.43516 -0.0747149 5.80826 0.0163658 5.14936C0.106626 4.49046 0.558747 3.96695 1.19385 3.78069L13.8762 0.0668971C14.4596 -0.103777 15.0849 0.0578711 15.5149 0.486196C15.9448 0.918625 16.1048 1.55045 15.9309 2.13632L12.1785 14.8088C11.9906 15.4464 11.4655 15.8969 10.8082 15.9847C10.7311 15.9945 10.6564 16.0003 10.5809 16.0003Z" fill="#333333"/>
</svg>
