<svg width="20" height="20" viewBox="0 0 20 20" fill="none" xmlns="http://www.w3.org/2000/svg">
<g clip-path="url(#clip0)">
<path d="M0.346128 9.33L5.23696 11.7675C5.42613 11.8608 5.64946 11.8542 5.8303 11.7483L10.1836 9.2175L7.54863 11.5525C7.41446 11.6717 7.3378 11.8417 7.3378 12.0208V17.7083C7.3378 18.3083 8.10363 18.5608 8.4628 18.0842L10.577 15.2733L15.8053 18.2508C16.172 18.4617 16.642 18.25 16.727 17.8308L19.9878 1.58083C20.0853 1.0925 19.5995 0.694162 19.1478 0.875829L0.397795 8.18833C-0.105539 8.385 -0.138039 9.08916 0.346128 9.33V9.33ZM18.5378 2.45583L15.672 16.7367L10.7178 13.915C10.4478 13.7608 10.1003 13.8292 9.90863 14.0825L8.5878 15.8383V12.3017L15.7136 5.98833C16.2778 5.48916 15.6295 4.60166 14.9853 4.98L5.49363 10.4983L2.16696 8.84083L18.5378 2.45583Z" fill="white"/>
</g>
<defs>
<clipPath id="clip0">
<rect width="20" height="20" fill="white"/>
</clipPath>
</defs>
</svg>
