<svg width="20" height="21" viewBox="0 0 20 21" fill="none" xmlns="http://www.w3.org/2000/svg">
<path fill-rule="evenodd" clip-rule="evenodd" d="M11.8244 5.8563C11.8244 3.69562 10.0737 1.93806 7.92144 1.93806C5.7692 1.93806 4.01851 3.69562 4.01851 5.8563C4.01851 8.01698 5.7692 9.77454 7.92144 9.77454C10.0737 9.77454 11.8244 8.01698 11.8244 5.8563ZM13.2552 5.8563C13.2552 8.80923 10.8628 11.212 7.92144 11.212C4.98005 11.212 2.58767 8.80923 2.58767 5.8563C2.58767 2.90337 4.98005 0.50061 7.92144 0.50061C10.8628 0.50061 13.2552 2.90337 13.2552 5.8563ZM19.2527 8.54165H17.9613V7.28725C17.9613 6.87312 17.6266 6.53701 17.214 6.53701C16.8015 6.53701 16.4667 6.87312 16.4667 7.28725V8.54165H15.1774C14.7649 8.54165 14.4301 8.87775 14.4301 9.29188C14.4301 9.70601 14.7649 10.0421 15.1774 10.0421H16.4667V11.2975C16.4667 11.7116 16.8015 12.0478 17.214 12.0478C17.6266 12.0478 17.9613 11.7116 17.9613 11.2975V10.0421H19.2527C19.6652 10.0421 20 9.70601 20 9.29188C20 8.87775 19.6652 8.54165 19.2527 8.54165ZM7.92144 13.1447C4.5207 13.1447 0 13.5248 0 16.8159C0 17.8012 0.456355 19.1316 2.63052 19.8708C3.00616 20.0009 3.4107 19.7948 3.53824 19.4207C3.66479 19.0456 3.46451 18.6374 3.08986 18.5104C1.60222 18.0042 1.43084 17.301 1.43084 16.8159C1.43084 15.3334 3.61497 14.5812 7.92144 14.5812C12.2279 14.5812 14.412 15.3394 14.412 16.8359C14.412 18.3193 12.2279 19.0706 7.92144 19.0706C7.59263 19.0706 7.2688 19.0666 6.95094 19.0566C6.56832 19.0596 6.22655 19.3577 6.21559 19.7538C6.20364 20.1509 6.51452 20.482 6.90909 20.494C7.2409 20.502 7.57868 20.507 7.92144 20.507C11.3222 20.507 15.8429 20.1259 15.8429 16.8359C15.8429 13.1447 9.88038 13.1447 7.92144 13.1447Z" fill="white"/>
</svg>
