<svg width="14" height="17" viewBox="0 0 14 17" fill="none" xmlns="http://www.w3.org/2000/svg">
<path fill-rule="evenodd" clip-rule="evenodd" d="M13.4173 13.147C13.4173 15.8188 9.68097 16.1276 6.87132 16.1276L6.67026 16.1275C4.88018 16.1232 0.32373 16.0124 0.32373 13.1308C0.32373 10.5135 3.90986 10.1637 6.69813 10.1505L7.07237 10.1503C8.86233 10.1546 13.4173 10.2654 13.4173 13.147ZM6.87132 11.3661C3.34913 11.3661 1.56365 11.9594 1.56365 13.1308C1.56365 14.3127 3.34913 14.9117 6.87132 14.9117C10.3927 14.9117 12.1773 14.3183 12.1773 13.147C12.1773 11.9651 10.3927 11.3661 6.87132 11.3661ZM6.87132 0.0202637C9.29164 0.0202637 11.2598 1.95117 11.2598 4.32467C11.2598 6.69817 9.29164 8.62826 6.87132 8.62826H6.84487C4.42951 8.62096 2.47292 6.68925 2.48116 4.32223C2.48116 1.95117 4.45017 0.0202637 6.87132 0.0202637ZM6.87132 1.17783C5.10154 1.17783 3.66157 2.58912 3.66157 4.32467C3.6558 6.05453 5.08501 7.46502 6.84735 7.4715L6.87132 8.05028V7.4715C8.64027 7.4715 10.0794 6.0594 10.0794 4.32467C10.0794 2.58912 8.64027 1.17783 6.87132 1.17783Z" fill="#0088CC"/>
</svg>
