<svg width="109" height="110" viewBox="0 0 109 110" fill="none" xmlns="http://www.w3.org/2000/svg">
<path d="M78.7673 18.4534C74.009 5.06133 54.1053 3.28002 48.154 13.5351C42.2027 23.7902 30.621 35.2402 19.2429 45.2889C7.86481 55.3375 11.4131 65.4506 20.9378 68.0617C30.4625 70.6729 35.803 69.0378 40.4889 74.153C45.1747 79.2682 54.2303 95.4742 68.2628 92.007C82.2953 88.5398 88.2341 80.4766 85.8419 58.9751C83.4498 37.4737 83.5255 31.8454 78.7673 18.4534Z" fill="#D93955"/>
<path d="M94.6681 56.4259C102.338 45.1954 92.3654 28.7731 81.0181 29.9399C69.6709 31.1068 54.185 28.5851 39.902 25.4317C25.6191 22.2783 19.8011 30.7242 23.2098 39.5737C26.6185 48.4232 30.9331 51.6393 29.6396 58.1509C28.3462 64.6626 20.9452 80.8073 31.6389 89.7246C42.3326 98.642 51.9731 98.7002 67.2816 84.7343C82.5901 70.7684 86.9978 67.6563 94.6681 56.4259Z" fill="#D93955" fill-opacity="0.3"/>
</svg>
