<svg width="114" height="114" viewBox="0 0 114 114" fill="none" xmlns="http://www.w3.org/2000/svg">
<path d="M98.0051 70.6258C109.709 62.5636 106.278 42.877 94.8325 39.7827C83.3866 36.6884 69.3291 28.4649 56.678 20.0752C44.0269 11.6856 35.1767 17.7304 35.1197 27.6064C35.0627 37.4824 38.0244 42.2178 34.2962 48.0679C30.5681 53.9179 17.258 66.8594 24.239 79.5164C31.22 92.1733 40.5455 95.8228 60.6951 87.9472C80.8448 80.0716 86.301 78.688 98.0051 70.6258Z" fill="#27AE60"/>
<path d="M65.442 95.8129C78.275 100.315 91.5565 86.4315 87.4926 75.7729C83.4286 65.1143 81.8563 49.5035 81.2056 34.891C80.5548 20.2785 70.8909 16.8448 63.2251 22.4278C55.5594 28.0108 53.5696 33.0107 46.9451 33.4466C40.3206 33.8826 22.8104 30.9124 16.9647 43.5497C11.119 56.187 13.5579 65.514 31.01 76.6863C48.4622 87.8585 52.609 91.3105 65.442 95.8129Z" fill="#27AE60" fill-opacity="0.3"/>
</svg>
