<svg width="108" height="108" viewBox="0 0 108 108" fill="none" xmlns="http://www.w3.org/2000/svg">
<path d="M32.3575 11.2713C18.3805 8.69609 6.88604 25.0425 12.7915 35.324C18.697 45.6055 22.8222 61.3606 25.8356 76.2387C28.8489 91.1167 39.3812 93.1004 46.4049 86.1573C53.4286 79.2143 54.6828 73.7717 61.4556 72.2712C68.2285 70.7708 86.7911 71.0314 90.8046 57.1453C94.8181 43.2592 90.8046 34.0844 70.9877 25.4054C51.1709 16.7263 46.3345 13.8466 32.3575 11.2713Z" fill="#0088CC"/>
<path d="M73.1931 16.4869C67.3024 4.22894 48.0937 4.65471 43.4306 15.0651C38.7676 25.4756 28.8408 37.6259 18.9683 48.4186C9.0959 59.2113 13.5013 68.4728 22.8696 69.9455C32.2378 71.4182 37.1803 69.2898 42.1728 73.6657C47.1653 78.0417 57.4466 92.5235 70.5161 87.7211C83.5856 82.9188 88.4562 74.599 84.0157 54.3585C79.5751 34.118 79.0838 28.7448 73.1931 16.4869Z" fill="#0088CC" fill-opacity="0.3"/>
</svg>
