<svg width="111" height="109" viewBox="0 0 111 109" fill="none" xmlns="http://www.w3.org/2000/svg">
<path d="M58.4428 10.8107C47.626 1.592 29.4982 10.0012 29.4718 21.858C29.4454 33.7148 25.1403 49.4217 20.3109 63.8131C15.4815 78.2045 23.611 85.1886 33.1652 82.6876C42.7194 80.1865 46.5269 76.1002 53.1425 78.1872C59.7582 80.2742 75.7036 89.7812 86.1225 79.7623C96.5413 69.7433 97.6529 59.791 84.8305 42.3663C72.0081 24.9416 69.2596 20.0294 58.4428 10.8107Z" fill="#E8C046"/>
<path d="M91.1998 35.7452C92.2272 22.1842 75.3791 12.9486 66.1355 19.6327C56.892 26.3169 42.22 31.876 28.2738 36.2865C14.3277 40.697 13.5122 50.9204 20.889 56.88C28.2657 62.8395 33.6103 63.4674 35.7459 69.7534C37.8816 76.0394 39.5446 93.7216 53.2643 96.0974C66.9839 98.4732 75.3619 93.7033 81.6365 73.9543C87.9111 54.2052 90.1723 49.3063 91.1998 35.7452Z" fill="#E8C046" fill-opacity="0.3"/>
</svg>
