<svg width="20" height="21" viewBox="0 0 20 21" fill="none" xmlns="http://www.w3.org/2000/svg">
<path fill-rule="evenodd" clip-rule="evenodd" d="M2.30157 3.14066C2.30352 3.14066 2.25474 3.1914 2.19328 3.25191C1.95719 3.48125 1.46842 3.95847 1.46349 4.95682C1.45574 6.35334 2.37376 8.94633 6.79414 13.3672C11.194 17.7666 13.7822 18.6957 15.1812 18.6957H15.2017C16.1997 18.6908 16.6758 18.2009 16.9061 17.9657C16.9763 17.8935 17.0329 17.8408 17.0729 17.8076C18.0446 16.8297 18.5421 16.1017 18.5373 15.6352C18.5304 15.159 17.9382 14.5959 17.1197 13.8171C16.8592 13.5692 16.5763 13.2999 16.2778 13.0012C15.5042 12.2293 15.1208 12.361 14.2778 12.6577C13.112 13.0666 11.5121 13.6229 9.02627 11.1353C6.53658 8.64673 7.09364 7.04819 7.50143 5.88198C7.79606 5.0388 7.93069 4.65429 7.15608 3.87942C6.85267 3.57689 6.58048 3.28997 6.32976 3.02647C5.55612 2.21257 4.99808 1.6241 4.52493 1.61726H4.51712C4.04982 1.61726 3.32398 2.11693 2.29669 3.14456C2.29962 3.14163 2.30059 3.14066 2.30157 3.14066ZM15.1822 20.1595C12.7511 20.1595 9.58138 18.2233 5.76002 14.4026C1.92402 10.5663 -0.0144702 7.38586 8.13174e-05 4.94901C0.00894381 3.33877 0.852825 2.51412 1.16989 2.20476C1.18647 2.18427 1.24306 2.12864 1.26257 2.10912C2.66156 0.708694 3.60495 0.142667 4.54346 0.153252C5.63319 0.16804 6.40878 0.9839 7.39022 2.01739C7.63314 2.27307 7.89655 2.55121 8.1902 2.84398C9.61455 4.26881 9.20871 5.43111 8.88286 6.36408C8.52775 7.38195 8.22044 8.26027 10.0604 10.1008C11.9023 11.9414 12.7803 11.634 13.794 11.2758C14.7276 10.9499 15.8866 10.5419 17.3129 11.9668C17.6017 12.2556 17.8758 12.5162 18.1285 12.7573C19.1665 13.7439 19.986 14.5236 19.9998 15.6167C20.0114 16.5487 19.4455 17.4982 18.0485 18.8967L17.43 18.477L17.9529 18.9884C17.6436 19.3056 16.8202 20.1507 15.2095 20.1595H15.1822Z" fill="white"/>
</svg>
