<svg width="18" height="21" viewBox="0 0 18 21" fill="none" xmlns="http://www.w3.org/2000/svg">
<path fill-rule="evenodd" clip-rule="evenodd" d="M9.01016 2.00109H8.99289C6.86763 2.00109 5.13673 3.69563 5.12657 5.7863V7.12973H12.8724V5.80331C12.8724 3.70664 11.1395 2.00109 9.01016 2.00109ZM14.397 5.80331V7.40082C16.197 8.02202 17.5 9.69155 17.5 11.6732V15.9636C17.5 18.4694 15.4286 20.507 12.8826 20.507H12.8531H9.44213C9.02134 20.507 8.67984 20.1709 8.67984 19.7568C8.67984 19.3426 9.02134 19.0065 9.44213 19.0065H12.8531C14.5586 19.0065 15.9449 17.6421 15.9449 15.9636C15.9449 15.927 15.9545 15.8939 15.964 15.8607C15.9681 15.8467 15.9721 15.8328 15.9754 15.8185V11.6732C15.9754 9.99465 14.5881 8.63021 12.8826 8.63021H5.11742C3.41193 8.63021 2.02457 9.99465 2.02457 11.6732V15.8185C2.02782 15.8339 2.032 15.8489 2.03619 15.8639C2.04511 15.896 2.05405 15.9282 2.05405 15.9636C2.05405 17.6421 3.44141 19.0065 5.1469 19.0065C5.56768 19.0065 5.90918 19.3426 5.90918 19.7568C5.90918 20.1709 5.56768 20.507 5.1469 20.507C5.14334 20.507 5.14004 20.5065 5.13673 20.506C5.13343 20.5055 5.13013 20.505 5.12657 20.505C5.12504 20.505 5.12352 20.5055 5.122 20.506C5.12047 20.5065 5.11895 20.507 5.11742 20.507C2.57139 20.507 0.5 18.4694 0.5 15.9636V11.6732C0.5 9.69155 1.80198 8.02202 3.602 7.40082V5.80331C3.61521 2.86437 6.03013 0.50061 8.98984 0.50061H9.01321C11.98 0.50061 14.397 2.87937 14.397 5.80331ZM9.76208 12.7073V14.929C9.76208 15.3432 9.42058 15.6793 8.9998 15.6793C8.57901 15.6793 8.23751 15.3432 8.23751 14.929V12.7073C8.23751 12.2932 8.57901 11.9571 8.9998 11.9571C9.42058 11.9571 9.76208 12.2932 9.76208 12.7073Z" fill="white"/>
</svg>
