<svg width="22" height="21" viewBox="0 0 22 21" fill="none" xmlns="http://www.w3.org/2000/svg">
<path fill-rule="evenodd" clip-rule="evenodd" d="M16.0232 0.17688C19.4306 0.17688 22 2.96444 22 6.66101V13.7074C22 15.5993 21.3328 17.3085 20.1203 18.5212C19.0326 19.6077 17.6215 20.1833 16.0395 20.1833H5.9574C4.37851 20.1833 2.96847 19.6087 1.87972 18.5212C0.667163 17.3085 0 15.5993 0 13.7074V6.66101C0 2.96444 2.5694 0.17688 5.97684 0.17688H16.0232ZM16.0232 1.71583H5.97684C3.40335 1.71583 1.53488 3.79548 1.53488 6.66101V13.7074C1.53488 15.1878 2.04242 16.5103 2.96335 17.4306C3.7574 18.2257 4.79395 18.6443 5.96047 18.6443H16.0232C16.0252 18.6423 16.0334 18.6443 16.0395 18.6443C17.2071 18.6443 18.2426 18.2257 19.0367 17.4306C19.9586 16.5103 20.4651 15.1878 20.4651 13.7074V6.66101C20.4651 3.79548 18.5967 1.71583 16.0232 1.71583ZM17.6358 6.46484C17.9029 6.79418 17.8527 7.27844 17.5243 7.54724L12.9769 11.253C12.4019 11.7106 11.7142 11.9394 11.0276 11.9394C10.3431 11.9394 9.66056 11.7127 9.08958 11.2592L4.50028 7.54929C4.16977 7.28254 4.1186 6.79726 4.38363 6.46689C4.6507 6.13756 5.13367 6.08523 5.46316 6.35096L10.0484 10.0568C10.6245 10.5143 11.4359 10.5143 12.0161 10.0527L16.5553 6.35301C16.8847 6.08318 17.3677 6.13448 17.6358 6.46484Z" fill="white"/>
</svg>
