<svg width="20" height="17" viewBox="0 0 20 17" fill="none" xmlns="http://www.w3.org/2000/svg">
<path fill-rule="evenodd" clip-rule="evenodd" d="M10.0021 0.605347C14.1381 0.607335 17.853 3.49261 19.94 8.32161C20.02 8.50455 20.02 8.71135 19.94 8.89528C19.692 9.46896 19.416 10.0267 19.118 10.5497C18.919 10.9017 18.475 11.0239 18.121 10.8271C17.769 10.6282 17.645 10.1858 17.843 9.83583C18.065 9.4451 18.275 9.03249 18.468 8.60795C16.601 4.50275 13.4531 2.0619 10.0001 2.06091C6.54617 2.0619 3.39821 4.50275 1.53123 8.60795C3.39821 12.7131 6.54617 15.155 10.0001 15.155C12.0081 15.155 13.9451 14.3238 15.6021 12.7499C15.8951 12.4745 16.357 12.4845 16.636 12.7748C16.916 13.0641 16.904 13.5244 16.612 13.8018C14.6791 15.6382 12.3941 16.6096 10.0021 16.6106H9.99813H9.99712C5.86218 16.6086 2.14722 13.7243 0.0592493 8.89528C-0.0197498 8.71235 -0.0197498 8.50455 0.0592493 8.32161C2.14722 3.49261 5.86218 0.607335 9.99712 0.605347H10.0001H10.0021ZM8.74864 10.6875C9.12464 10.9122 9.55763 11.0305 9.99963 11.0305C11.3426 11.0305 12.4356 9.94381 12.4356 8.60755C12.4356 7.27329 11.3426 6.18659 9.99963 6.18659C8.65664 6.18659 7.56366 7.27329 7.56366 8.60755C7.56366 9.01022 7.23566 9.33533 6.83166 9.33533C6.42767 9.33533 6.10067 9.01022 6.10067 8.60755C6.10067 6.46995 7.84965 4.73103 9.99963 4.73103C12.1496 4.73103 13.8986 6.46995 13.8986 8.60755C13.8986 10.7462 12.1496 12.4851 9.99963 12.4851C9.29163 12.4851 8.59864 12.2942 7.99565 11.9333C7.64865 11.7275 7.53666 11.2801 7.74565 10.9351C7.95365 10.592 8.40365 10.4777 8.74864 10.6875Z" fill="white"/>
</svg>
