<svg width="22" height="18" viewBox="0 0 22 18" fill="none" xmlns="http://www.w3.org/2000/svg">
<path fill-rule="evenodd" clip-rule="evenodd" d="M7.81658 4.59506C7.81658 4.97946 7.50641 5.29144 7.12423 5.29144C6.74204 5.29144 6.43187 4.97946 6.43187 4.59506C6.43187 2.06119 8.48125 0.000854492 11.0005 0.000854492C13.5188 0.000854492 15.5682 2.06119 15.5682 4.59506C15.5682 7.12894 13.5188 9.18927 11.0005 9.18927C9.96936 9.18927 8.99728 8.85594 8.19046 8.22457C7.88859 7.98873 7.83412 7.5514 8.0686 7.24779C8.30216 6.94324 8.7388 6.88938 9.04067 7.12615C9.60194 7.5644 10.2795 7.79653 11.0005 7.79653C12.7563 7.79653 14.1835 6.36014 14.1835 4.59506C14.1835 2.82999 12.7563 1.3936 11.0005 1.3936C9.24469 1.3936 7.81658 2.82999 7.81658 4.59506ZM6.0207 7.48845C6.0207 7.87285 5.71052 8.18482 5.32834 8.18482C3.33527 8.18482 1.71331 6.55438 1.71331 4.54975C1.71331 2.54513 3.33527 0.913754 5.32834 0.913754C5.71052 0.913754 6.0207 1.22573 6.0207 1.61013C6.0207 1.99453 5.71052 2.3065 5.32834 2.3065C4.09871 2.3065 3.09803 3.31299 3.09803 4.54975C3.09803 5.78651 4.09871 6.79208 5.32834 6.79208C5.71052 6.79208 6.0207 7.10405 6.0207 7.48845ZM4.03114 11.3765C3.58618 11.4062 3.13938 11.4722 2.70273 11.5706C2.03253 11.7034 1.57188 11.9299 1.4528 12.1806C1.36325 12.371 1.36325 12.591 1.4528 12.7814C1.51003 12.9011 1.74267 13.1992 2.69073 13.3951C3.06553 13.4722 3.30647 13.8398 3.22985 14.2168C3.16338 14.5464 2.87444 14.773 2.55226 14.773C2.50611 14.773 2.45995 14.7683 2.41287 14.7591C1.26725 14.5232 0.524115 14.059 0.202861 13.3793C-0.0676203 12.8083 -0.0676203 12.1537 0.202861 11.5827C0.527808 10.8965 1.27278 10.4332 2.41748 10.2066C2.90583 10.0971 3.42371 10.0219 3.9379 9.9875C4.30716 9.95872 4.64965 10.2512 4.67549 10.6347C4.70134 11.0191 4.41332 11.3515 4.03114 11.3765ZM16.6833 6.81473C16.3011 6.81473 15.9909 7.12671 15.9909 7.51111C15.9909 7.8955 16.3011 8.20748 16.6833 8.20748C18.6717 8.20748 20.29 6.57982 20.29 4.57984C20.29 2.57892 18.6717 0.952194 16.6833 0.952194C16.3011 0.952194 15.9909 1.26324 15.9909 1.64857C15.9909 2.03297 16.3011 2.34494 16.6833 2.34494C17.9083 2.34494 18.9053 3.34772 18.9053 4.57984C18.9053 5.81195 17.9083 6.81473 16.6833 6.81473ZM19.6028 10.2237C20.73 10.4484 21.4731 10.9099 21.7971 11.5923C22.0676 12.1633 22.0676 12.817 21.7971 13.388C21.4768 14.0649 20.7355 14.5282 19.5917 14.765C19.5456 14.7752 19.4985 14.7799 19.4514 14.7799C19.1302 14.7799 18.8422 14.5524 18.7748 14.2237C18.6981 13.8467 18.9391 13.4781 19.3139 13.401C20.2583 13.2051 20.4909 12.908 20.5472 12.7892C20.6367 12.5997 20.6367 12.3815 20.5472 12.1921C20.429 11.9424 19.9702 11.7167 19.3185 11.5868C18.8652 11.4865 18.4184 11.4205 17.9772 11.3908C17.595 11.3658 17.307 11.0324 17.3328 10.649C17.3577 10.2655 17.691 9.98138 18.0695 10.0018C18.5818 10.0362 19.0969 10.1114 19.6028 10.2237ZM11.0002 10.6303C9.33303 10.6303 4.26036 10.6303 4.26036 13.8271C4.26036 14.5486 4.54284 15.5476 5.88878 16.2115C6.30235 16.4139 6.80269 16.5792 7.37689 16.7027C7.74892 16.7862 8.11817 16.543 8.19757 16.1669C8.27788 15.7909 8.03878 15.4204 7.66491 15.3406C7.20149 15.2412 6.80823 15.1131 6.49806 14.9599C5.742 14.5876 5.64507 14.1595 5.64507 13.8271C5.64507 12.336 8.55759 12.0231 11.0002 12.0231C14.5543 12.0231 16.3554 12.6238 16.3554 13.8104C16.3554 15.3006 13.4429 15.6136 11.0002 15.6136C10.618 15.6136 10.3079 15.9255 10.3079 16.3099C10.3079 16.6943 10.618 17.0063 11.0002 17.0063C12.6674 17.0063 17.7401 17.0063 17.7401 13.8104C17.7401 10.6303 12.8437 10.6303 11.0002 10.6303Z" fill="white"/>
</svg>
