<svg width="104" height="19" viewBox="0 0 104 19" fill="none" xmlns="http://www.w3.org/2000/svg">
<path d="M57.6064 0.158203H60.343C61.6285 0.158203 62.5585 0.357563 63.1328 0.756155C63.707 1.15475 63.9941 1.78482 63.9941 2.64624C63.9941 3.24189 63.8329 3.7344 63.5104 4.12378C63.1923 4.50868 62.7263 4.75846 62.1123 4.87298V4.94169C63.5833 5.20286 64.3188 6.00465 64.3188 7.34719C64.3188 8.24521 64.0251 8.9463 63.4375 9.4502C62.8544 9.95423 62.0372 10.2063 60.9858 10.2063H57.6064V0.158203ZM58.7329 4.46057H60.5883C61.3834 4.46057 61.9555 4.33235 62.3045 4.07567C62.6535 3.8145 62.8279 3.37701 62.8279 2.76306C62.8279 2.1994 62.6336 1.7939 62.2448 1.54656C61.856 1.29448 61.2376 1.16857 60.3894 1.16857H58.7329V4.46057ZM58.7329 5.45033V9.20977H60.754C61.5358 9.20977 62.1234 9.05391 62.5165 8.74233C62.914 8.42627 63.1129 7.93363 63.1129 7.26466C63.1129 6.64163 62.9096 6.18341 62.5032 5.89013C62.1013 5.59697 61.4873 5.45033 60.6612 5.45033H58.7329Z" fill="white"/>
<path d="M67.6963 10.2063V0.158203H68.8228V9.14783H73.0967V10.2063H67.6963Z" fill="white"/>
<path d="M82.1246 10.206L80.9186 7.01011H77.0357L75.8429 10.206H74.7031L78.5331 0.116699H79.4807L83.2909 10.206H82.1246ZM80.5675 5.95854L79.441 2.84517C79.2952 2.45118 79.145 1.96775 78.9903 1.39501C78.8932 1.83493 78.7541 2.31823 78.573 2.84517L77.4332 5.95854H80.5675Z" fill="white"/>
<path d="M92.9085 10.2063H91.5832L88.0513 5.3335L87.0376 6.26812V10.2063H85.9111V0.158203H87.0376V5.14105L91.4308 0.158203H92.7627L88.8664 4.5225L92.9085 10.2063Z" fill="white"/>
<path d="M101.626 10.206L100.421 7.01011H96.5375L95.3449 10.206H94.2051L98.0351 0.116699H98.9827L102.793 10.206H101.626ZM100.069 5.95854L98.9429 2.84517C98.7971 2.45118 98.6469 1.96775 98.4923 1.39501C98.3951 1.83493 98.256 2.31823 98.0748 2.84517L96.9351 5.95854H100.069Z" fill="white"/>
<path d="M54.4182 5.16839C54.4182 6.77658 54.025 8.0412 53.2386 8.96212C52.4568 9.88304 51.3679 10.3436 49.9719 10.3436C48.5451 10.3436 47.4429 9.89225 46.6654 8.98963C45.8924 8.0824 45.5059 6.80409 45.5059 5.15457C45.5059 3.51887 45.8946 2.25195 46.6721 1.35393C47.4495 0.451312 48.5539 0 49.9851 0C51.3767 0 52.4634 0.458221 53.2453 1.37454C54.0272 2.29098 54.4182 3.55547 54.4182 5.16839ZM46.6986 5.16839C46.6986 6.52911 46.9769 7.56238 47.5334 8.26794C48.0945 8.96903 48.9073 9.31951 49.9719 9.31951C51.0454 9.31951 51.856 8.96903 52.4038 8.26794C52.9516 7.56698 53.2254 6.53371 53.2254 5.16839C53.2254 3.81663 52.9516 2.79258 52.4038 2.09622C51.8605 1.39514 51.0543 1.04466 49.9851 1.04466C48.9117 1.04466 48.0945 1.39744 47.5334 2.10301C46.9769 2.80409 46.6986 3.82585 46.6986 5.16839Z" fill="#46B4DE"/>
<path d="M32.8096 10.2063V0.158203H33.9361V10.2063H32.8096Z" fill="white"/>
<path d="M40.2608 10.2063H39.1345V1.19608H36.0664V0.158203H43.3289V1.19608H40.2608V10.2063Z" fill="white"/>
<path fill-rule="evenodd" clip-rule="evenodd" d="M2.8952 4.26576C3.6139 3.9157 4.40758 3.76998 5.19682 3.8431L5.85336 3.90382L5.70156 5.70961L5.04502 5.64878C4.55713 5.60356 4.0665 5.69369 3.62222 5.91011C3.40721 6.01485 3.20578 6.14778 3.02274 6.30579L2.96224 6.35806C2.48903 6.76663 2.12948 7.30159 1.92138 7.90644L1.90337 7.9588C1.84601 8.12558 1.80232 8.29718 1.7728 8.47171C1.70399 8.87857 1.71306 9.2957 1.79947 9.69883L1.87121 10.0335C1.96541 10.4729 2.16147 10.8811 2.44198 11.222C2.61273 11.4296 2.8122 11.6089 3.03373 11.7543L3.15602 11.8345C3.46053 12.0342 3.79495 12.1787 4.14521 12.2618L4.4986 12.3456C4.63931 12.3791 4.78459 12.3855 4.92749 12.3649L5.26415 12.3161C5.42573 12.2927 5.56746 12.191 5.64689 12.0415L7.15541 12.9243C6.81189 13.5709 6.19894 14.0107 5.50015 14.1118L5.16349 14.1606C4.81508 14.211 4.46087 14.1951 4.11782 14.1137L3.76444 14.0299C3.22487 13.902 2.70972 13.6794 2.24063 13.3717L2.11834 13.2915C1.75015 13.05 1.41862 12.7518 1.13484 12.407C0.6686 11.8403 0.342753 11.1617 0.186177 10.4314L0.114453 10.0968C-0.0223103 9.45884 -0.036662 8.7987 0.0722331 8.15488C0.118953 7.87864 0.188077 7.60713 0.278858 7.34318L0.296859 7.29091C0.610357 6.37951 1.15204 5.57375 1.86495 4.95813L1.92544 4.90596C2.22153 4.65027 2.5474 4.43515 2.8952 4.26576Z" fill="#46B4DE"/>
<path fill-rule="evenodd" clip-rule="evenodd" d="M7.22502 11.8929C6.41459 10.5554 6.12251 8.95092 6.40722 7.40046C6.87338 4.86165 8.80014 2.87949 11.2583 2.4097L11.3338 2.39525C12.0282 2.26252 12.74 2.25903 13.4355 2.38487L13.7131 2.43503C15.0209 2.67167 16.1925 3.4143 16.9896 4.51183C16.99 4.51243 16.9905 4.51303 16.9908 4.51363L18.0975 6.05562L19.4921 4.9861L18.3827 3.44042L17.6855 3.97513L18.38 3.43664C17.318 1.97283 15.7561 0.982374 14.0124 0.666946L13.7349 0.616746C12.8358 0.454091 11.9157 0.458638 11.0182 0.630168L10.9426 0.644609C7.77991 1.24902 5.30098 3.79932 4.70121 7.06569C4.33491 9.06062 4.71069 11.1249 5.7534 12.8457L5.83552 12.9813C7.17749 15.196 9.47804 16.5972 12.0025 16.7373C14.5482 16.8786 16.9989 15.7197 18.5602 13.6363L18.9989 13.051L17.6261 11.9517L17.1874 12.5371C15.9752 14.1548 14.0722 15.0546 12.0957 14.9449C10.1355 14.8361 8.34914 13.7481 7.30715 12.0285L7.22502 11.8929Z" fill="#46B4DE"/>
<path fill-rule="evenodd" clip-rule="evenodd" d="M22.4536 11.6946C23.2013 10.7989 23.263 9.77526 23.1321 8.68761L22.9471 8.04781C22.6729 6.88273 21.7065 5.92609 20.6031 5.61659L19.8629 5.42465C19.2008 5.23889 18.4699 5.29874 17.889 5.68057L17.176 4.6252C18.1634 3.9762 19.363 3.7869 20.4884 4.10246L20.7659 4.18035C22.4788 4.66076 23.8072 6.08261 24.2329 7.89104L24.2813 8.0971C24.6547 9.6833 24.3039 11.3618 23.3325 12.6378L23.2013 12.8101C22.4837 13.7527 21.4485 14.369 20.3103 14.5311C19.1901 14.6907 18.054 14.3987 17.1305 13.7137L16.6553 13.3611L17.3338 12.7183L17.7039 12.9103C18.6909 13.4221 19.5462 13.3279 20.233 13.2302C20.9308 13.1307 21.6436 12.7843 22.0835 12.2065L22.4536 11.6946Z" fill="#46B4DE"/>
<path d="M24.5508 5.48828L25.1532 5.91626C25.4205 6.10612 25.6611 6.332 25.8685 6.58756C26.1273 6.90658 26.3311 7.26784 26.471 7.65603L26.5387 7.84385C26.8455 8.69502 26.849 9.62831 26.5487 10.4818C26.3583 11.0228 26.052 11.5142 25.6518 11.9204L24.5508 13.0379L25.2405 11.6727C25.4499 11.2583 25.6042 10.8177 25.6994 10.362C25.837 9.7035 25.849 9.02424 25.7347 8.3611L25.7076 8.20358C25.6073 7.62257 25.4027 7.06523 25.1036 6.55951L24.5508 5.48828Z" fill="#46B4DE"/>
<path d="M26.2783 6.89551L26.9133 7.48594C27.1779 7.73189 27.3798 8.03823 27.5021 8.37891C27.6778 8.8689 27.6798 9.40476 27.5078 9.89616L27.4925 9.93972C27.3763 10.2717 27.1886 10.5737 26.9427 10.8244L26.2783 11.502L26.6964 10.6708C26.8241 10.4168 26.9181 10.147 26.976 9.86852C27.0595 9.46715 27.0668 9.05346 26.9975 8.64939L26.9884 8.59652C26.9224 8.21217 26.7936 7.84135 26.6072 7.49916L26.2783 6.89551Z" fill="#46B4DE"/>
<path d="M32.7925 15.7589V11.7065H34.1173C34.5571 11.7065 34.8874 11.7975 35.1082 11.9793C35.3308 12.1611 35.4421 12.4302 35.4421 12.7864C35.4421 12.9757 35.3883 13.1436 35.2807 13.2902C35.1731 13.4349 35.0265 13.5472 34.841 13.627C35.0599 13.6882 35.2325 13.8051 35.3586 13.9776C35.4867 14.1483 35.5507 14.3524 35.5507 14.5899C35.5507 14.9536 35.4329 15.2394 35.1972 15.4472C34.9616 15.655 34.6285 15.7589 34.198 15.7589H32.7925ZM33.3269 13.8635V15.3219H34.2092C34.4578 15.3219 34.6536 15.2579 34.7964 15.1299C34.9412 15 35.0135 14.8219 35.0135 14.5955C35.0135 14.1075 34.7482 13.8635 34.2175 13.8635H33.3269ZM33.3269 13.4349H34.134C34.3678 13.4349 34.5543 13.3765 34.6935 13.2596C34.8345 13.1427 34.905 12.984 34.905 12.7836C34.905 12.561 34.84 12.3996 34.7102 12.2994C34.5803 12.1973 34.3827 12.1463 34.1173 12.1463H33.3269V13.4349ZM39.3247 14.473C39.2746 14.9017 39.116 15.2329 38.8488 15.4667C38.5834 15.6986 38.23 15.8146 37.7884 15.8146C37.3097 15.8146 36.9256 15.6429 36.6361 15.2997C36.3485 14.9564 36.2047 14.4972 36.2047 13.922V13.5323C36.2047 13.1557 36.2715 12.8245 36.4051 12.5387C36.5406 12.253 36.7317 12.034 36.9785 11.8819C37.2252 11.7279 37.511 11.6509 37.8357 11.6509C38.2662 11.6509 38.6113 11.7715 38.871 12.0127C39.1308 12.2521 39.282 12.5842 39.3247 13.0091H38.7875C38.7412 12.6862 38.64 12.4524 38.4842 12.3077C38.3302 12.163 38.114 12.0906 37.8357 12.0906C37.4943 12.0906 37.2262 12.2168 37.0313 12.4691C36.8384 12.7215 36.7419 13.0805 36.7419 13.5462V13.9387C36.7419 14.3784 36.8337 14.7282 37.0174 14.9879C37.2011 15.2477 37.4581 15.3776 37.7884 15.3776C38.0853 15.3776 38.3125 15.3108 38.4703 15.1772C38.6298 15.0418 38.7356 14.807 38.7875 14.473H39.3247ZM42.3473 13.8858H40.5911V15.3219H42.6311V15.7589H40.0567V11.7065H42.6033V12.1463H40.5911V13.4488H42.3473V13.8858ZM45.8096 12.1463H43.8558V15.7589H43.3186V11.7065H45.8096V12.1463ZM49.6309 16.7525H49.0993V15.7589H46.1909V16.7553H45.6565L45.6537 15.3219H45.9849C46.1593 15.1252 46.2976 14.8618 46.3996 14.5315C46.5035 14.1994 46.5685 13.8357 46.5944 13.4405L46.6835 11.7065H49.1077V15.3219H49.6365L49.6309 16.7525ZM46.5944 15.3219H48.5705V12.1463H47.1984L47.1399 13.3375C47.1158 13.8032 47.0537 14.2003 46.9535 14.5287C46.8551 14.8571 46.7354 15.1215 46.5944 15.3219ZM52.5533 14.7013H50.8555L50.4742 15.7589H49.9231L51.4706 11.7065H51.9382L53.4884 15.7589H52.9401L52.5533 14.7013ZM51.0169 14.2615H52.3946L51.7044 12.3662L51.0169 14.2615ZM58.565 13.8635C58.565 14.2606 58.4982 14.6076 58.3646 14.9044C58.231 15.1995 58.0417 15.4249 57.7968 15.5808C57.5519 15.7366 57.2662 15.8146 56.9396 15.8146C56.6205 15.8146 56.3375 15.7366 56.0907 15.5808C55.8439 15.423 55.6519 15.1995 55.5146 14.91C55.3791 14.6187 55.3096 14.2819 55.3059 13.8997V13.6075C55.3059 13.2178 55.3736 12.8736 55.509 12.5749C55.6445 12.2762 55.8356 12.048 56.0824 11.8902C56.331 11.7307 56.6149 11.6509 56.934 11.6509C57.2587 11.6509 57.5445 11.7297 57.7913 11.8875C58.0399 12.0433 58.231 12.2706 58.3646 12.5693C58.4982 12.8662 58.565 13.2123 58.565 13.6075V13.8635ZM58.0334 13.6019C58.0334 13.1213 57.9369 12.753 57.7439 12.497C57.551 12.2391 57.281 12.1101 56.934 12.1101C56.5963 12.1101 56.3301 12.2391 56.1352 12.497C55.9423 12.753 55.843 13.1093 55.8374 13.5657V13.8635C55.8374 14.3293 55.9349 14.6957 56.1297 14.9629C56.3264 15.2282 56.5963 15.3609 56.9396 15.3609C57.2847 15.3609 57.5519 15.2356 57.7412 14.9852C57.9304 14.7328 58.0278 14.3719 58.0334 13.9025V13.6019ZM62.0885 12.1463H60.786V15.7589H60.2544V12.1463H58.9546V11.7065H62.0885V12.1463ZM65.6037 11.7065V15.7589H65.0693V12.1463H63.6165L63.5441 13.7522C63.5163 14.2903 63.4606 14.6948 63.3771 14.9657C63.2955 15.2366 63.1749 15.436 63.0153 15.5641C62.8558 15.6902 62.6424 15.7552 62.3752 15.7589H62.1999V15.3219L62.3112 15.3164C62.4837 15.3034 62.6164 15.2477 62.7092 15.1494C62.8019 15.0492 62.8725 14.8905 62.9207 14.6734C62.9689 14.4564 63.0033 14.1224 63.0237 13.6715L63.1072 11.7065H65.6037ZM69.13 11.7065H69.6644V15.7589H69.13V12.6361L67.1345 15.7589H66.5973V11.7065H67.1345V14.8293L69.13 11.7065ZM73.4969 11.7065V15.7589H72.9597V14.0806C72.7649 14.1363 72.5877 14.1752 72.4281 14.1975C72.2686 14.2179 72.0867 14.2281 71.8826 14.2281C71.4206 14.2281 71.0773 14.1279 70.8528 13.9275C70.6283 13.7272 70.5133 13.4201 70.5077 13.0063V11.7065H71.0449V12.9924C71.0467 13.2744 71.1107 13.4776 71.2369 13.6019C71.3649 13.7262 71.5802 13.7884 71.8826 13.7884C72.2352 13.7884 72.5942 13.7383 72.9597 13.6381V11.7065H73.4969ZM77.577 15.7589H77.0399V13.8858H74.997V15.7589H74.4626V11.7065H74.997V13.4488H77.0399V11.7065H77.577V15.7589ZM79.0855 13.3598H80.0931C80.5161 13.3653 80.8464 13.4739 81.0839 13.6854C81.3214 13.8969 81.4401 14.1845 81.4401 14.5482C81.4401 14.9137 81.3205 15.205 81.0811 15.4221C80.8417 15.6392 80.5152 15.7515 80.1014 15.7589H78.5512V11.7065H79.0855V13.3598ZM79.0855 13.7995V15.3219H80.0624C80.3278 15.3219 80.5337 15.2514 80.6803 15.1104C80.8288 14.9694 80.903 14.7801 80.903 14.5426C80.903 14.3144 80.8315 14.1344 80.6887 14.0027C80.5477 13.8709 80.3463 13.8032 80.0847 13.7995H79.0855ZM82.4644 15.7589H81.93V11.7065H82.4644V15.7589ZM85.7485 13.8858H83.9923V15.3219H86.0324V15.7589H83.458V11.7065H86.0046V12.1463H83.9923V13.4488H85.7485V13.8858ZM90.6665 11.7065H91.2008V15.7589H90.6665V12.6361L88.6709 15.7589H88.1337V11.7065H88.6709V14.8293L90.6665 11.7065ZM95.8822 16.7525H95.3506V15.7589H92.4421V16.7553H91.9078L91.905 15.3219H92.2362C92.4106 15.1252 92.5488 14.8618 92.6509 14.5315C92.7548 14.1994 92.8197 13.8357 92.8457 13.4405L92.9348 11.7065H95.3589V15.3219H95.8877L95.8822 16.7525ZM92.8457 15.3219H94.8218V12.1463H93.4497L93.3912 13.3375C93.3671 13.8032 93.3049 14.2003 93.2047 14.5287C93.1064 14.8571 92.9867 15.1215 92.8457 15.3219ZM98.8129 13.8858H97.0567V15.3219H99.0968V15.7589H96.5223V11.7065H99.0689V12.1463H97.0567V13.4488H98.8129V13.8858ZM102.317 11.7065H102.851V15.7589H102.317V12.6361L100.321 15.7589H99.7842V11.7065H100.321V14.8293L102.317 11.7065Z" fill="white"/>
</svg>
